# xmcd
#
# Track frame offsets: 
#        150
#        22841
#        36992
#        49693
#        68354
#        83801
#        99059
#        115791
#        130360
#        148162
#        173464
#        190719
#        207566
#        223002
#        244129
#        264060
#        279437
#
# Disc length: 3880 seconds
#
# Revision: 0
# Processed by: cddbd v1.5.2PL0 Copyright (c) Steve Scherf et al.
# Submitted via: ExactAudioCopy v0.95b4
#
DISCID=e20f2611
DTITLE=Roger Ridley  - Taking you back ll
DYEAR=2010
DGENRE=soul
TTITLE0=Respect
TTITLE1=Bring It On Home
TTITLE2=My Girl
TTITLE3=Tears On My Pillow
TTITLE4=These Arms Of Mine
TTITLE5=Summer Time
TTITLE6=Steal Away
TTITLE7=Try A Little Tenderness
TTITLE8=Lucille
TTITLE9=Don't Know Much About History
TTITLE10=Stand By Me
TTITLE11=Dock Of The Bay
TTITLE12=Just My Imagination
TTITLE13=Ain't No Sunshine
TTITLE14=Dreams To Remember
TTITLE15=Wonderful World
TTITLE16=Wrapped Up In Your Emotions
EXTD=
EXTT0=
EXTT1=
EXTT2=
EXTT3=
EXTT4=
EXTT5=
EXTT6=
EXTT7=
EXTT8=
EXTT9=
EXTT10=
EXTT11=
EXTT12=
EXTT13=
EXTT14=
EXTT15=
EXTT16=
PLAYORDER=
